<svg xmlns="http://www.w3.org/2000/svg" viewBox="0 0 296 132" role="img" aria-label="Sinq wordmark"><rect width="296" height="132" fill="#0E3B31"/><g transform="translate(12 12)"><defs><mask id="lk_seven-beads" maskUnits="userSpaceOnUse" x="0" y="0" width="108" height="108"><rect width="108" height="108" fill="#000"/><g fill="#fff"><circle cx="54.00" cy="32.50" r="9.33"/><circle cx="37.19" cy="40.59" r="9.33"/><circle cx="33.04" cy="58.78" r="9.33"/><circle cx="44.67" cy="73.37" r="9.33"/><circle cx="63.33" cy="73.37" r="9.33"/><circle cx="74.96" cy="58.78" r="9.33"/><circle cx="70.81" cy="40.59" r="9.33"/><path d="M 48.80 44.00 L 59.20 44.00 Q 57.40 46.31 57.40 50.60 Q 61.69 50.60 64.00 48.80 L 64.00 59.20 Q 61.69 57.40 57.40 57.40 Q 57.40 61.69 59.20 64.00 L 48.80 64.00 Q 50.60 61.69 50.60 57.40 Q 46.31 57.40 44.00 59.20 L 44.00 48.80 Q 46.31 50.60 50.60 50.60 Q 50.60 46.31 48.80 44.00 Z"/></g><g fill="#000"></g></mask></defs><rect width="108" height="108" fill="#E8C46B" mask="url(#lk_seven-beads)"/></g><g fill="#E8C46B"><path transform="translate(156.00 88.00) scale(0.05974 -0.05974)" d="M 92.0 -6.0 Q 80.0 9.0 75.5 34.5 Q 71.0 60.0 71.0 92.0 L 71.0 307.0 Q 71.0 418.0 121.5 494.5 Q 172.0 571.0 265.0 598.0 L 230.0 666.0 Q 218.0 691.0 218.0 713.0 Q 218.0 742.0 235.0 759.0 L 406.0 764.0 L 406.0 715.0 Q 372.0 712.0 372.0 682.0 Q 372.0 669.0 380.0 653.0 L 402.0 611.0 Q 503.0 602.0 542.0 543.0 Q 581.0 484.0 581.0 380.0 Q 581.0 346.0 579.5 302.0 Q 578.0 258.0 577.0 213.5 Q 576.0 169.0 576.0 132.0 Q 576.0 88.0 590.5 73.5 Q 605.0 59.0 635.0 59.0 L 635.0 6.0 L 439.0 -6.0 Q 418.0 22.0 418.0 92.0 Q 418.0 137.0 419.0 192.5 Q 420.0 248.0 421.0 306.0 Q 422.0 364.0 422.0 414.0 Q 422.0 484.0 404.0 517.5 Q 386.0 551.0 348.0 551.0 Q 294.0 551.0 261.5 494.0 Q 229.0 437.0 229.0 298.0 L 229.0 132.0 Q 229.0 88.0 243.5 73.5 Q 258.0 59.0 288.0 59.0 L 288.0 6.0 Z"/><path transform="translate(196.03 88.00) scale(0.05974 -0.05974)" d="M 367.0 -6.0 Q 353.0 6.0 345.0 24.0 Q 337.0 42.0 337.0 71.0 Q 337.0 91.0 343.0 126.5 Q 349.0 162.0 358.0 205.0 Q 367.0 248.0 376.0 290.0 Q 385.0 332.0 391.0 366.0 Q 397.0 400.0 397.0 417.0 Q 397.0 451.0 379.5 463.5 Q 362.0 476.0 327.0 476.0 L 242.0 476.0 L 242.0 576.0 Q 242.0 619.0 226.0 636.5 Q 210.0 654.0 179.0 654.0 L 164.0 654.0 Q 165.0 649.0 165.5 643.5 Q 166.0 638.0 166.0 629.0 Q 166.0 586.0 140.0 560.5 Q 114.0 535.0 67.0 535.0 Q 34.0 535.0 12.0 547.0 Q 41.0 589.0 41.0 645.0 Q 41.0 664.0 38.0 682.0 Q 35.0 700.0 31.0 714.0 L 246.0 714.0 Q 328.0 714.0 363.5 680.5 Q 399.0 647.0 399.0 591.0 L 399.0 540.0 L 458.0 540.0 Q 509.0 540.0 532.0 517.0 Q 555.0 494.0 555.0 455.0 Q 555.0 437.0 549.0 402.5 Q 543.0 368.0 534.0 326.0 Q 525.0 284.0 516.0 241.5 Q 507.0 199.0 500.5 164.5 Q 494.0 130.0 494.0 112.0 Q 494.0 82.0 507.0 69.0 Q 520.0 56.0 546.0 56.0 L 546.0 6.0 Z"/><path transform="translate(233.12 88.00) scale(0.05974 -0.05974)" d="M 295.0 -6.0 Q 281.0 7.0 273.5 25.0 Q 266.0 43.0 266.0 72.0 L 266.0 232.0 Q 175.0 235.0 121.0 254.0 Q 67.0 273.0 43.5 307.5 Q 20.0 342.0 20.0 390.0 Q 20.0 438.0 43.5 472.0 Q 67.0 506.0 121.0 525.5 Q 175.0 545.0 266.0 547.0 L 266.0 598.0 Q 266.0 628.0 255.5 641.0 Q 245.0 654.0 220.0 654.0 L 33.0 654.0 Q 37.0 668.0 40.0 686.0 Q 43.0 704.0 43.0 723.0 Q 43.0 779.0 14.0 821.0 Q 36.0 833.0 69.0 833.0 Q 116.0 833.0 142.0 807.5 Q 168.0 782.0 168.0 739.0 Q 168.0 730.0 167.5 724.5 Q 167.0 719.0 166.0 714.0 L 394.0 714.0 Q 410.0 704.0 416.5 686.0 Q 423.0 668.0 423.0 648.0 L 423.0 547.0 Q 515.0 545.0 569.5 526.5 Q 624.0 508.0 647.5 474.0 Q 671.0 440.0 671.0 390.0 Q 671.0 343.0 647.5 308.5 Q 624.0 274.0 569.5 254.0 Q 515.0 234.0 423.0 232.0 L 423.0 123.0 Q 423.0 83.0 436.0 69.5 Q 449.0 56.0 472.0 56.0 L 472.0 6.0 Z M 520.0 391.0 Q 520.0 429.0 500.5 454.5 Q 481.0 480.0 423.0 487.0 L 423.0 293.0 Q 478.0 299.0 499.0 325.0 Q 520.0 351.0 520.0 391.0 Z M 170.0 388.0 Q 170.0 351.0 190.0 325.5 Q 210.0 300.0 266.0 293.0 L 266.0 486.0 Q 212.0 479.0 191.0 454.0 Q 170.0 429.0 170.0 388.0 Z"/></g></svg>